<?xml version="1.0" encoding="utf-8"?>
<!-- Generator: Adobe Illustrator 16.0.0, SVG Export Plug-In . SVG Version: 6.00 Build 0)  -->
<!DOCTYPE svg PUBLIC "-//W3C//DTD SVG 1.1//EN" "http://www.w3.org/Graphics/SVG/1.1/DTD/svg11.dtd">
<svg version="1.1" xmlns="http://www.w3.org/2000/svg" xmlns:xlink="http://www.w3.org/1999/xlink" x="0px" y="0px"
	 width="419.979px" height="367.482px" viewBox="85.102 250.098 419.979 367.482"
	 enable-background="new 85.102 250.098 419.979 367.482" xml:space="preserve">
<g id="Layer_1" display="none">
	<path display="inline" d="M239.255,337.025c-4.764,19.186-33.75,129.857-33.75,129.857h70.952c0,0-31.557-110.671-36.271-129.857
		H239.255z"/>
	<path display="inline" d="M-11.192,119.575v612h611.999v-612H-11.192z M311.652,603.42l-24.787-82.203h-91.722l-22.965,82.203
		H97.024l98.121-320.542h94.988l99.38,320.542H311.652z M490.209,603.42h-72.396V370.96h72.396V603.42L490.209,603.42z
		 M453.569,342.348c-22.779,0-38.088-16.246-37.576-36.128c-0.512-20.96,14.799-36.645,38.137-36.645
		c23.339,0,37.903,15.684,38.462,36.645C492.591,326.102,477.469,342.348,453.569,342.348z"/>
</g>
<g id="Camada_2">
	<path d="M195.145,282.877h94.988l99.38,320.542h-77.861l-24.787-82.203h-91.722l-22.965,82.203H97.024L195.145,282.877z
		 M205.505,466.883h70.952l-37.202-129.857L205.505,466.883z"/>
	<rect x="417.813" y="370.96" width="72.396" height="232.46"/>
	<ellipse cx="454.285" cy="305.947" rx="38.293" ry="36.841"/>
</g>
</svg>
