<?xml version="1.0" encoding="utf-8"?>
<!-- Generator: Adobe Illustrator 16.0.0, SVG Export Plug-In . SVG Version: 6.00 Build 0)  -->
<!DOCTYPE svg PUBLIC "-//W3C//DTD SVG 1.1//EN" "http://www.w3.org/Graphics/SVG/1.1/DTD/svg11.dtd">
<svg version="1.1" id="Capa_1" xmlns="http://www.w3.org/2000/svg" xmlns:xlink="http://www.w3.org/1999/xlink" x="0px" y="0px"
	 width="166px" height="128.254px" viewBox="224.5 328.833 166 128.254" enable-background="new 224.5 328.833 166 128.254"
	 xml:space="preserve">
<g>
	<path fill="#FFFFFF" d="M294.644,411.714c0,6.864-0.65,12.715-1.953,17.539c-1.302,4.826-3.278,8.701-5.903,11.732
		c-2.637,2.989-5.936,5.199-9.864,6.576c-3.939,1.398-8.519,2.082-13.739,2.082c-4.59,0-8.732-0.727-12.458-2.168
		s-6.875-3.501-9.479-6.191c-2.616-2.7-4.622-5.957-6.032-9.778c-1.42-3.833-2.124-8.113-2.124-12.8v-3.074h14.796
		c0,13.771,5.103,20.667,15.308,20.667c2.616,0,4.932-0.299,6.981-0.929c2.039-0.64,3.769-1.804,5.189-3.544
		c1.419-1.729,2.487-4.12,3.224-7.217c0.736-3.096,1.11-7.131,1.11-12.115v-77.055h14.967v76.275H294.644z M377.217,434.079
		c-1.526,3.117-3.703,5.839-6.49,8.166c-2.808,2.327-6.234,4.132-10.259,5.455c-4.015,1.292-8.54,1.943-13.526,1.943
		c-22.097,0-33.766-8.722-34.95-26.187h14.539c0.064,9.864,6.822,14.807,20.252,14.807c2.978,0,5.646-0.321,7.942-0.993
		c2.295-0.651,4.217-1.559,5.732-2.712c1.537-1.152,2.69-2.529,3.491-4.1c0.779-1.558,1.195-3.255,1.195-5.112
		c0-1.954-0.31-3.502-0.897-4.677c-0.597-1.185-1.771-2.241-3.501-3.158c-1.719-0.908-4.121-1.806-7.174-2.67
		c-3.063-0.897-7.067-1.996-11.999-3.288c-4.804-1.195-8.967-2.392-12.447-3.587c-3.501-1.174-6.362-2.615-8.594-4.313
		c-2.241-1.708-3.907-3.801-4.985-6.288c-1.078-2.498-1.611-5.647-1.611-9.447c0-3.341,0.704-6.448,2.124-9.309
		s3.438-5.338,6.085-7.44c2.626-2.104,5.817-3.737,9.554-4.932c3.77-1.195,7.933-1.783,12.512-1.783
		c21.372,0,32.24,7.59,32.57,22.792h-14.294c-0.513-7.591-6.234-11.402-17.177-11.402c-2.434,0-4.676,0.246-6.758,0.726
		s-3.864,1.174-5.401,2.082c-1.537,0.907-2.711,2.028-3.576,3.362c-0.844,1.334-1.27,2.883-1.27,4.633
		c0,1.59,0.202,2.893,0.597,3.907c0.396,1.025,1.346,1.986,2.851,2.861c1.506,0.875,3.736,1.74,6.672,2.594
		c2.946,0.854,6.971,1.901,12.085,3.15c4.932,1.185,9.213,2.423,12.854,3.693c3.618,1.281,6.629,2.829,9.052,4.644
		c2.413,1.805,4.185,4.014,5.358,6.63c1.154,2.604,1.741,5.871,1.741,9.778C379.513,427.567,378.734,430.961,377.217,434.079z"/>
</g>
</svg>
