<?xml version="1.0" encoding="utf-8"?>
<!-- Generator: Adobe Illustrator 16.0.0, SVG Export Plug-In . SVG Version: 6.00 Build 0)  -->
<!DOCTYPE svg PUBLIC "-//W3C//DTD SVG 1.1//EN" "http://www.w3.org/Graphics/SVG/1.1/DTD/svg11.dtd">
<svg version="1.1" xmlns="http://www.w3.org/2000/svg" xmlns:xlink="http://www.w3.org/1999/xlink" x="0px" y="0px" width="354px"
	 height="292px" viewBox="126.5 248.5 354 292" enable-background="new 126.5 248.5 354 292" xml:space="preserve">
<g id="Layer_1" display="none">
	<path display="inline" d="M224.05,309.303c-11.604,0-19.604,1.159-23.638,2.316v75.14c4.925,1.059,10.876,1.423,19.14,1.423
		c30.578,0,49.587-15.472,49.587-41.587C269.008,323.223,252.843,309.303,224.05,309.303z"/>
	<path display="inline" d="M302.56,405.638c-19.503,18.445-48.661,26.711-82.645,26.711c-7.47,0-14.314-0.265-19.603-1.025v91.043
		h-56.959V271.188c17.688-2.974,42.612-5.29,77.721-5.29c35.538,0,60.826,6.71,77.753,20.396
		c16.396,12.794,27.239,33.985,27.239,58.911C326.066,370.1,317.803,391.29,302.56,405.638z M388.578,526.102
		c-24.164,0-45.718-5.291-59.668-12.894l10.214-41.091c10.579,6.348,32.398,13.95,49.454,13.95c17.289,0,24.529-6.049,24.529-15.504
		c0-9.423-5.686-13.919-27.105-21.158c-38.249-12.792-52.961-33.587-52.563-55.538c0-34.347,29.454-60.431,75.141-60.431
		c21.589,0,40.827,4.893,52.167,10.579l-10.185,39.669c-8.396-4.528-24.164-10.612-40.03-10.612c-13.95,0-21.82,5.687-21.82,15.109
		c0,8.66,7.109,13.189,29.688,21.19c35.141,11.999,49.852,29.818,50.25,56.96C468.648,500.812,441.373,526.102,388.578,526.102z"/>
</g>
<g id="Camada_2">
	<path d="M143.353,271.188c15.353-2.812,45.583-4.563,45.583-4.563c61.936-4.875,88.62,7.728,88.62,7.728
		c51.556,19.353,48.51,70.854,48.51,70.854c0.065,42.706-23.506,60.432-23.506,60.432c-27.94,27.468-74.738,26.553-74.738,26.553
		c-11.073,0.769-27.509-0.867-27.509-0.867v91.043h-56.959V271.188z M328.91,513.208c6.66,3.958,19.19,7.575,19.19,7.575
		c15.904,5.898,43.899,5.318,43.899,5.318c33.75,0.102,52.499-14.104,52.499-14.104c26.332-17.336,24.149-45.665,24.149-45.665
		c-0.477-23.918-12.086-34.143-12.086-34.143c-3.92-5.163-14.336-11.936-14.336-11.936c-3.764-2.492-12.357-6.44-12.357-6.44
		c-3.666-1.689-17.274-6.552-17.274-6.552c-12.47-4.262-18.503-8.969-18.503-8.969c-7.842-5.584-4.854-14.092-4.854-14.092
		c2.175-7.674,10.844-9.772,10.844-9.772c6.138-2.054,15.412-1.164,15.412-1.164c9.826,0.76,21.054,4.434,21.054,4.434
		c4.93,1.517,14.015,5.985,14.015,5.985l10.185-39.669c-2.587-1.49-9.797-4.017-9.797-4.017
		c-20.051-6.507-39.278-6.526-39.278-6.526c-17.829-0.533-31.88,3.89-31.88,3.89c-12.283,2.713-25.988,13.472-25.988,13.472
		c-8.167,5.765-14.993,18.989-14.993,18.989c-5.857,11.989-5.371,25.51-5.371,25.51c-0.152,5.671,2.304,13.642,2.304,13.642
		c1.648,6.49,7.723,13.991,7.723,13.991c5.879,7.551,14.972,13.442,14.972,13.442c9.812,6.532,20.595,10.407,20.595,10.407
		c0.679,0.396,14.555,5.295,14.555,5.295c10.539,4.058,13.439,6.635,13.439,6.635c7.517,5.302,6.013,13.373,6.013,13.373
		c-0.58,5.883-4.085,8.458-4.085,8.458c-9.547,7.741-26.477,5.195-26.477,5.195c-22.977-2.146-43.353-13.653-43.353-13.653
		L328.91,513.208z M200.412,386.759c0,0,39.509,8.205,58.549-12.527c0,0,10.317-8.543,10.178-27.638c0,0,1.068-23.024-19.535-32.309
		c0,0-12.764-6.644-29.872-4.926c0,0-13.408,0.629-19.32,2.26V386.759z"/>
</g>
</svg>
