<?xml version="1.0" encoding="utf-8"?>
<!-- Generator: Adobe Illustrator 16.0.0, SVG Export Plug-In . SVG Version: 6.00 Build 0)  -->
<!DOCTYPE svg PUBLIC "-//W3C//DTD SVG 1.1//EN" "http://www.w3.org/Graphics/SVG/1.1/DTD/svg11.dtd">
<svg version="1.1" xmlns="http://www.w3.org/2000/svg" xmlns:xlink="http://www.w3.org/1999/xlink" x="0px" y="0px"
	 width="179.667px" height="146px" viewBox="0 0 179.667 146" enable-background="new 0 0 179.667 146" xml:space="preserve">
<g id="Camada_1" display="none">
	
		<image display="inline" overflow="visible" width="259" height="262" xlink:href="B08C3B1A.jpg"  transform="matrix(1 0 0 1 -38.3335 -58)">
	</image>
</g>
<g id="Camada_2">
	<polygon fill="#010202" points="5.167,132 26.167,132 48.417,84.75 71.667,132 94.417,132 62.167,69.75 92.667,10.75 70.917,10.75 
		49.792,55.75 27.417,10.75 5.167,10.75 36.167,69.75 	"/>
	<path fill="#010202" d="M171.667,126c0,0-10.75,8.75-29.25,8.25c0,0-34.25,2.25-41.5-34.75c0,0-1-10.5,0-16
		c0,0-0.75-15.5,12.75-31.5c0,0,9.75-10,20.25-10.75h16.75l1-30.5h20V126z"/>
	<path fill="#FFFFFF" d="M150.667,113.5c0,0-7.5,6.5-20-1.5c0,0-8-4.5-10-22.75c0,0,0-18.75,8.25-25.75c0,0,7.5-6.25,14.75-5.75
		c0,0,5.25,0,7,1.75V113.5z"/>
</g>
</svg>
