<svg width="422" height="422" viewBox="0 0 422 422" fill="none" xmlns="http://www.w3.org/2000/svg">
<circle cx="211" cy="211" r="202.5" fill="white" stroke="#539E43" stroke-width="17"/>
<path d="M215.498 355C211.54 355 207.844 353.942 204.411 352.09L169.304 331.189C164.023 328.277 166.663 327.22 168.249 326.691C175.375 324.31 176.695 323.779 184.086 319.548C184.878 319.017 185.936 319.283 186.726 319.811L213.652 335.951C214.707 336.48 216.028 336.48 216.818 335.951L322.145 274.832C323.2 274.303 323.73 273.243 323.73 271.922V149.949C323.73 148.623 323.2 147.568 322.145 147.037L216.818 86.1831C215.763 85.6519 214.443 85.6519 213.652 86.1831L108.325 147.037C107.27 147.566 106.74 148.889 106.74 149.946V271.92C106.74 272.98 107.27 274.3 108.325 274.832L137.099 291.5C152.674 299.437 162.44 290.177 162.44 280.916V160.53C162.44 158.943 163.76 157.355 165.608 157.355H179.07C180.655 157.355 182.238 158.678 182.238 160.53V280.916C182.238 301.818 170.887 313.99 151.089 313.99C145.018 313.99 140.267 313.99 126.803 307.374L99.0866 291.5C92.2231 287.532 88 280.122 88 272.185V150.212C88 142.275 92.2231 134.865 99.0866 130.897L204.411 69.778C211.012 66.074 219.988 66.074 226.587 69.778L331.911 130.897C338.775 134.865 343 142.275 343 150.212V272.185C343 280.122 338.775 287.532 331.911 291.5L226.587 352.619C223.154 354.208 219.193 355 215.498 355ZM247.967 271.127C201.773 271.127 192.269 249.961 192.269 231.969C192.269 230.38 193.59 228.794 195.437 228.794H209.164C210.747 228.794 212.067 229.852 212.067 231.44C214.18 245.462 220.251 252.342 248.232 252.342C270.405 252.342 279.911 247.314 279.911 235.408C279.911 228.528 277.269 223.504 242.689 220.063C213.915 217.151 195.965 210.803 195.965 187.784C195.965 166.352 213.917 153.651 244.009 153.651C277.796 153.651 294.428 165.294 296.541 190.691C296.541 191.488 296.276 192.28 295.749 193.074C295.219 193.603 294.428 194.132 293.636 194.132H279.909C278.589 194.132 277.269 193.074 277.006 191.751C273.838 177.2 265.654 172.436 244.009 172.436C219.723 172.436 216.818 180.905 216.818 187.253C216.818 194.926 220.251 197.307 252.983 201.54C285.452 205.775 300.764 211.86 300.764 234.613C300.499 257.898 281.494 271.127 247.967 271.127Z" fill="#539E43"/>
</svg>
