<svg width="422" height="422" viewBox="0 0 422 422" fill="none" xmlns="http://www.w3.org/2000/svg">
<circle cx="211" cy="211" r="202.5" fill="white" stroke="url(#paint0_linear_1203_69)" stroke-width="17"/>
<path d="M209.004 77.3137C198.083 77.3645 187.655 78.2958 178.478 79.9196C151.446 84.6953 146.538 94.6913 146.538 113.126V137.472H210.419V145.587H146.538H122.564C103.999 145.587 87.742 156.746 82.6572 177.974C76.7919 202.306 76.5318 217.49 82.6572 242.897C87.1981 261.809 98.0423 275.284 116.608 275.284H138.571V246.099C138.571 225.014 156.814 206.415 178.478 206.415H242.284C260.046 206.415 274.225 191.791 274.225 173.954V113.126C274.225 95.8136 259.62 82.8089 242.284 79.9196C231.311 78.0928 219.924 77.263 209.004 77.3137ZM174.458 96.8948C181.056 96.8948 186.445 102.371 186.445 109.105C186.445 115.815 181.056 121.241 174.458 121.241C167.836 121.241 162.471 115.815 162.471 109.105C162.471 102.371 167.836 96.8948 174.458 96.8948Z" fill="url(#paint1_linear_1203_69)"/>
<path d="M282.188 145.587V173.953C282.188 195.946 263.543 214.456 242.282 214.456H178.475C160.998 214.456 146.535 229.414 146.535 246.917V307.746C146.535 325.058 161.589 335.24 178.475 340.207C198.697 346.153 218.087 347.227 242.282 340.207C258.364 335.551 274.222 326.18 274.222 307.746V283.399H210.416V275.284H274.222H306.162C324.728 275.284 331.646 262.334 338.103 242.897C344.772 222.887 344.488 203.644 338.103 177.974C333.514 159.492 324.751 145.587 306.162 145.587H282.188ZM246.302 299.63C252.924 299.63 258.289 305.056 258.289 311.766C258.289 318.5 252.924 323.976 246.302 323.976C239.704 323.976 234.315 318.5 234.315 311.766C234.315 305.056 239.704 299.63 246.302 299.63Z" fill="url(#paint2_linear_1203_69)"/>
<defs>
<linearGradient id="paint0_linear_1203_69" x1="26.5" y1="61" x2="376.5" y2="369.5" gradientUnits="userSpaceOnUse">
<stop offset="0.489583" stop-color="#407DAE"/>
<stop offset="0.557292" stop-color="#FFDD52"/>
</linearGradient>
<linearGradient id="paint1_linear_1203_69" x1="78.1602" y1="77.3115" x2="225.462" y2="202.833" gradientUnits="userSpaceOnUse">
<stop stop-color="#5A9FD4"/>
<stop offset="1" stop-color="#306998"/>
</linearGradient>
<linearGradient id="paint2_linear_1203_69" x1="244.767" y1="309.719" x2="191.921" y2="235.666" gradientUnits="userSpaceOnUse">
<stop stop-color="#FFD43B"/>
<stop offset="1" stop-color="#FFE873"/>
</linearGradient>
</defs>
</svg>
