<svg width="422" height="422" viewBox="0 0 422 422" fill="none" xmlns="http://www.w3.org/2000/svg">
<circle cx="211" cy="211" r="202.5" fill="white" stroke="url(#paint0_linear_1254_639)" stroke-width="17"/>
<path d="M102 211V102H320V320H102" fill="#007ACC"/>
<path d="M149.795 211.382V220.266H178.135V300.926H198.245V220.266H226.585V211.546C226.585 206.641 226.585 202.662 226.367 202.553C226.367 202.39 209.091 202.335 188.108 202.335L149.958 202.499V211.437L149.795 211.382ZM277.161 202.281C282.72 203.589 286.971 206.096 290.786 210.074C292.803 212.254 295.8 216.069 296.018 217.05C296.018 217.377 286.59 223.754 280.867 227.296C280.649 227.46 279.777 226.533 278.905 225.116C276.071 221.083 273.183 219.339 268.659 219.012C262.119 218.576 257.759 222.01 257.759 227.732C257.759 229.476 258.086 230.457 258.74 231.874C260.212 234.872 262.937 236.67 271.384 240.376C286.971 247.08 293.729 251.494 297.817 257.816C302.449 264.901 303.485 276.019 300.378 284.358C296.89 293.459 288.388 299.618 276.235 301.634C272.42 302.288 263.7 302.179 259.612 301.471C250.892 299.836 242.554 295.476 237.431 289.862C235.414 287.682 231.545 281.851 231.763 281.469L233.834 280.161L242.009 275.42L248.167 271.823L249.584 273.73C251.383 276.564 255.416 280.379 257.759 281.687C264.844 285.339 274.327 284.848 279.014 280.597C281.031 278.744 281.903 276.782 281.903 274.057C281.903 271.55 281.521 270.406 280.268 268.498C278.524 266.1 275.036 264.138 265.226 259.778C253.944 254.982 249.148 251.93 244.679 247.243C242.118 244.409 239.774 239.995 238.684 236.343C237.867 233.182 237.594 225.443 238.357 222.337C240.701 211.437 248.93 203.807 260.702 201.627C264.517 200.864 273.51 201.191 277.27 202.172L277.161 202.281Z" fill="white"/>
<defs>
<linearGradient id="paint0_linear_1254_639" x1="395.5" y1="59" x2="36.5" y2="374.5" gradientUnits="userSpaceOnUse">
<stop stop-color="#007ACC"/>
<stop offset="1" stop-color="#89E3FF"/>
</linearGradient>
</defs>
</svg>
